# xmcd CD database file generated by freedbAccess_ocx
#
# Track frame offsets:
#       192
#       19215
#       31270
#       46692
#       65737
#       77755
#       96537
#       111797
#       122847
#       142877
#       156150
#
# Disc length: 2327 seconds
#
# Revision: 0
# Processed by: cddbd v1.4PL0 Copyright (c) Steve Scherf et al.
# Submitted via: CDnGo 2.00
#
DISCID=8f09150b
DTITLE=Netto - 21g
DYEAR=1994
DGENRE=Country
TTITLE0=Nikdy vic
TTITLE1=Co si chtel mas
TTITLE2=Srdce v ruce mam
TTITLE3=Sam doma
TTITLE4=Nocni mury
TTITLE5=Naic, jak driv
TTITLE6=Jedine country
TTITLE7=Pater
TTITLE8=Roky jdou dal
TTITLE9=Souzneni
TTITLE10=Zas bude fajn
EXTD=
EXTT0=
EXTT1=
EXTT2=
EXTT3=
EXTT4=
EXTT5=
EXTT6=
EXTT7=
EXTT8=
EXTT9=
EXTT10=
PLAYORDER=
